<?xml version="1.0" standalone="no"?><!DOCTYPE svg PUBLIC "-//W3C//DTD SVG 1.1//EN" "http://www.w3.org/Graphics/SVG/1.1/DTD/svg11.dtd"><svg t="1552742553700" class="icon" style="" viewBox="0 0 1025 1024" version="1.1" xmlns="http://www.w3.org/2000/svg" p-id="8150" xmlns:xlink="http://www.w3.org/1999/xlink" width="200.1953125" height="200"><defs><style type="text/css"></style></defs><path d="M512.917333 896.896l-60.330666-60.352a85.333333 85.333333 0 0 1 120.661333 0L512.917333 896.896zM60.373333 465.664L0.021333 405.333333C283.285333 122.069333 742.549333 122.069333 1025.813333 405.333333l-60.352 60.330667c-249.941333-249.92-655.146667-249.92-905.088 0z m135.765334 135.765333l-60.352-60.330666c208.277333-208.277333 545.984-208.277333 754.261333 0l-60.352 60.330666c-174.933333-174.933333-458.602667-174.933333-633.557333 0z m150.826666 150.848l-60.330666-60.330666c124.970667-124.970667 327.594667-124.970667 452.565333 0l-60.352 60.330666c-91.648-91.626667-240.213333-91.626667-331.861333 0z" p-id="8151"></path></svg>