<?xml version="1.0" standalone="no"?><!DOCTYPE svg PUBLIC "-//W3C//DTD SVG 1.1//EN" "http://www.w3.org/Graphics/SVG/1.1/DTD/svg11.dtd"><svg t="1552755114267" class="icon" style="" viewBox="0 0 1024 1024" version="1.1" xmlns="http://www.w3.org/2000/svg" p-id="19056" xmlns:xlink="http://www.w3.org/1999/xlink" width="200" height="200"><defs><style type="text/css"></style></defs><path d="M159.12 627.4c-7.5 0-13.57 6.08-13.57 13.57 0 7.5 6.08 13.57 13.57 13.57h705.76c7.5 0 13.57-6.08 13.57-13.57 0-7.5-6.08-13.57-13.57-13.57H159.12z m285.76-197.85l20.17 18.16-36.33 40.34-20.17-18.16 36.33-40.34z m-60.52-54.49l20.17 18.16-36.33 40.34-20.17-18.16 36.33-40.34z m151.33-46.37l20.17 18.16-54.49 60.52-20.17-18.16 54.49-60.52z m-60.52-54.49l20.17 18.16-54.49 60.52-20.17-18.16 54.49-60.52z m87.07 226.38L525.28 563l-23.36-13.83 36.97-62.42 23.35 13.83z m70.65-119.02l-36.97 62.42-23.36-13.83 36.97-62.42 23.36 13.83z m-320.2-106.03l15.04 22.6-60.4 40.18-15.04-22.6 60.4-40.18z m110.99-82.7l15.04 22.6-60.4 40.18-15.04-22.6 60.4-40.18z m230.3-36.08c-46.72-42.07-116.99-41.42-162.87-0.55l180.44 162.47c35.85-49.9 29.16-119.85-17.57-161.92zM207.15 681.69v122.15c0 52.47 42.54 95.01 95.01 95.01h431.56c52.47 0 95.01-42.54 95.01-95.01V681.69H207.15z m617.01-81.43h40.72c22.49 0 40.72 18.23 40.72 40.72s-18.23 40.72-40.72 40.72h-9.01v122.15c0 67.46-54.69 122.15-122.15 122.15H302.16c-67.46 0-122.15-54.69-122.15-122.15V681.69h-20.88c-22.49 0-40.72-18.23-40.72-40.72s18.23-40.72 40.72-40.72h637.9V260.87c0-52.33-42.69-94.92-95.27-94.92h-4.42c36.13 55.32 32.16 130.06-14.13 181.48l-9.08 10.09-221.9-199.8 9.08-10.09c55.17-61.27 149.57-66.22 210.85-11.05 0.82 0.74 1.62 1.48 2.42 2.23h27.19c67.55 0 122.41 54.73 122.41 122.06v339.39z" p-id="19057"></path></svg>