<?xml version="1.0" standalone="no"?><!DOCTYPE svg PUBLIC "-//W3C//DTD SVG 1.1//EN" "http://www.w3.org/Graphics/SVG/1.1/DTD/svg11.dtd"><svg t="1552755247528" class="icon" style="" viewBox="0 0 1024 1024" version="1.1" xmlns="http://www.w3.org/2000/svg" p-id="19544" xmlns:xlink="http://www.w3.org/1999/xlink" width="200" height="200"><defs><style type="text/css"></style></defs><path d="M289.902646 572.938907c0 106.552781 86.651522 193.204303 193.204303 193.204303s193.204303-86.652546 193.204303-193.204303S589.659731 379.734604 483.106949 379.734604 289.902646 466.38715 289.902646 572.938907zM483.106949 444.13638c71.034846 0 128.802528 57.767682 128.802528 128.802528S554.141796 701.741435 483.106949 701.741435s-128.802528-57.767682-128.802528-128.802528S412.073126 444.13638 483.106949 444.13638z" p-id="19545"></path><path d="M814.596759 363.634928m-48.301076 0a47.201 47.201 0 1 0 96.602152 0 47.201 47.201 0 1 0-96.602152 0Z" p-id="19546"></path><path d="M322.104045 161.254637l128.802528 0c17.806551 0 32.201399-14.392802 32.201399-32.201399s-14.392802-32.201399-32.201399-32.201399L322.104045 96.851838c-17.806551 0-32.201399 14.392802-32.201399 32.201399S304.295448 161.254637 322.104045 161.254637z" p-id="19547"></path><path d="M862.897835 223.848231 515.308349 223.848231c-17.773805 0-32.201399 14.426571-32.201399 32.201399s14.426571 32.201399 32.201399 32.201399l347.589486 0c17.774829 0 32.201399 14.459317 32.201399 32.201399l-0.352017 511.575328c0 16.847713-13.706163 30.55183-30.55183 30.55183L324.770781 862.579587l0 0.167822L161.100118 862.747409c-17.742083 0-32.201399-14.426571-32.201399-32.201399L128.898719 320.447313c0-17.742083 14.459317-32.201399 32.201399-32.201399l96.603175 0c17.773805 0 32.201399-14.426571 32.201399-32.201399s-14.426571-32.201399-32.201399-32.201399l-96.603175 0c-53.260018 0-96.603175 43.343157-96.603175 96.603175l0 510.09665c0 53.260018 43.343157 96.603175 96.603175 96.603175l703.096293-0.167822c52.356438 0 94.953605-42.597167 94.953605-94.953605l0.352017-511.576351C959.50101 267.190365 916.157853 223.848231 862.897835 223.848231z" p-id="19548"></path></svg>