<?xml version="1.0" standalone="no"?><!DOCTYPE svg PUBLIC "-//W3C//DTD SVG 1.1//EN" "http://www.w3.org/Graphics/SVG/1.1/DTD/svg11.dtd"><svg t="1552755298097" class="icon" style="" viewBox="0 0 1024 1024" version="1.1" xmlns="http://www.w3.org/2000/svg" p-id="19672" xmlns:xlink="http://www.w3.org/1999/xlink" width="200" height="200"><defs><style type="text/css"></style></defs><path d="M201.073371 512c110.9632 0 201.214171-90.249143 201.214171-201.179429 0-110.891886-90.249143-201.106286-201.214171-201.106286C90.216229 109.714286 0.001829 199.928686 0.001829 310.820571 0.001829 421.750857 90.216229 512 201.073371 512zM201.073371 182.857143c70.606629 0 128.071314 57.391543 128.071314 127.963429 0 70.606629-57.464686 128.036571-128.071314 128.036571-70.535314 0-127.928686-57.428114-127.928686-128.036571C73.144686 240.250514 130.538057 182.857143 201.073371 182.857143z" p-id="19673"></path><path d="M676.500114 512C807.606857 512 914.285714 405.321143 914.285714 274.2144 914.285714 143.178971 807.606857 36.571429 676.500114 36.571429c-131.035429 0-237.641143 106.607543-237.641143 237.641143C438.858971 405.321143 545.464686 512 676.500114 512zM676.500114 109.714286C767.286857 109.714286 841.142857 183.5008 841.142857 274.2144 841.142857 364.999314 767.286857 438.857143 676.500114 438.857143c-90.7136 0-164.498286-73.857829-164.498286-164.642743C512.001829 183.5008 585.786514 109.714286 676.500114 109.714286z" p-id="19674"></path><path d="M265.144686 740.571429l-54.857143 0c-15.1424 0-27.428571 12.286171-27.428571 27.428571s12.286171 27.428571 27.428571 27.428571l54.857143 0c15.1424 0 27.428571-12.286171 27.428571-27.428571S280.287086 740.571429 265.144686 740.571429z" p-id="19675"></path><path d="M448.001829 740.571429l-54.857143 0c-15.1424 0-27.428571 12.286171-27.428571 27.428571s12.286171 27.428571 27.428571 27.428571l54.857143 0c15.1424 0 27.428571-12.286171 27.428571-27.428571S463.144229 740.571429 448.001829 740.571429z" p-id="19676"></path><path d="M630.857143 740.571429l-54.857143 0c-15.1424 0-27.428571 12.286171-27.428571 27.428571s12.286171 27.428571 27.428571 27.428571l54.857143 0c15.1424 0 27.428571-12.286171 27.428571-27.428571S645.999543 740.571429 630.857143 740.571429z" p-id="19677"></path><path d="M1004.893257 545.857829c-11.821714-6.392686-26.143086-5.856914-37.392457 1.464686L804.571429 653.143771 804.571429 621.714286c0-40.321829-32.821029-73.142857-73.142857-73.142857L109.716114 548.571429c-40.321829 0-73.142857 32.821029-73.142857 73.142857l0 292.571429c0 40.321829 32.821029 73.142857 73.142857 73.142857L731.428571 987.428571c40.321829 0 73.142857-32.821029 73.142857-73.142857l0-31.429486 162.929371 105.821257c6.036114 3.927771 12.964571 5.893486 19.927771 5.893486 5.999543 0 11.999086-1.464686 17.464686-4.4288C1016.6784 983.749486 1024 971.392 1024 957.999543L1024 578.000457C1024 564.608 1016.6784 552.250514 1004.893257 545.857829zM109.716114 914.285714 109.716114 621.714286 731.428571 621.714286l0.071314 292.571429L109.716114 914.285714zM950.857143 890.642286l-146.285714-94.999771 0-55.285029 146.285714-94.999771L950.857143 890.642286z" p-id="19678"></path></svg>