<?xml version="1.0" standalone="no"?><!DOCTYPE svg PUBLIC "-//W3C//DTD SVG 1.1//EN" "http://www.w3.org/Graphics/SVG/1.1/DTD/svg11.dtd"><svg t="1552742177883" class="icon" style="" viewBox="0 0 1024 1024" version="1.1" xmlns="http://www.w3.org/2000/svg" p-id="5748" xmlns:xlink="http://www.w3.org/1999/xlink" width="200" height="200"><defs><style type="text/css"></style></defs><path d="M810.688 597.333333c-1.088 0-2.176-0.085333-3.264-0.256-11.648-1.792-19.626667-12.693333-17.834667-24.341333l39.957333-259.754667c10.410667-67.754667-9.194667-136.448-53.824-188.458667C731.072 72.490667 666.154667 42.666667 597.610667 42.666667l-171.2 0c-68.544 0-133.461333 29.824-178.112 81.877333-44.629333 52.010667-64.256 120.704-53.824 188.458667l39.957333 259.754667c1.792 11.648-6.208 22.549333-17.834667 24.341333-11.626667 1.664-22.549333-6.186667-24.32-17.834667L152.298667 319.509333c-12.330667-80.085333 10.88-161.28 63.616-222.741333C268.650667 35.264 345.365333 0 426.389333 0l171.2 0c81.024 0 157.738667 35.264 210.474667 96.746667 52.757333 61.482667 75.946667 142.677333 63.616 222.741333l-39.957333 259.754667C830.122667 589.781333 821.034667 597.333333 810.688 597.333333z" p-id="5749"></path><path d="M256 1024c-11.776 0-21.333333-9.536-21.333333-21.333333l0-42.666667c0-11.797333 9.557333-21.333333 21.333333-21.333333s21.333333 9.536 21.333333 21.333333l0 42.666667C277.333333 1014.464 267.776 1024 256 1024z" p-id="5750"></path><path d="M768 1024c-11.776 0-21.333333-9.536-21.333333-21.333333l0-42.666667c0-11.797333 9.557333-21.333333 21.333333-21.333333s21.333333 9.536 21.333333 21.333333l0 42.666667C789.333333 1014.464 779.776 1024 768 1024z" p-id="5751"></path><path d="M789.333333 981.333333 234.666667 981.333333c-82.346667 0-149.333333-67.008-149.333333-149.333333l0-85.333333c0-12.928-7.722667-24.512-19.648-29.504C25.770667 700.544 0 661.866667 0 618.666667c0-58.816 47.850667-106.666667 106.666667-106.666667 94.101333 0 170.666667 76.565333 170.666667 170.666667l0 31.168C315.114667 700.330667 388.202667 682.666667 512 682.666667s196.885333 17.664 234.666667 31.168L746.666667 682.666667c0-94.101333 76.565333-170.666667 170.666667-170.666667 58.816 0 106.666667 47.850667 106.666667 106.666667 0 43.221333-25.770667 81.898667-65.685333 98.496C946.389333 722.154667 938.666667 733.738667 938.666667 746.666667l0 85.333333C938.666667 914.325333 871.68 981.333333 789.333333 981.333333zM106.666667 554.666667c-35.285333 0-64 28.714667-64 64 0 25.941333 15.466667 49.152 39.424 59.114667C109.973333 689.386667 128 716.437333 128 746.666667l0 85.333333c0 58.816 47.850667 106.666667 106.666667 106.666667l554.666667 0c58.816 0 106.666667-47.850667 106.666667-106.666667l0-85.333333c0-30.208 18.026667-57.258667 45.909333-68.885333C965.866667 667.818667 981.333333 644.608 981.333333 618.666667c0-35.285333-28.714667-64-64-64-70.592 0-128 57.408-128 128l0 103.850667-33.173333-22.101333C755.754667 764.138667 692.544 725.333333 512 725.333333s-243.754667 38.805333-244.373333 39.210667l-32.768 20.842667L234.666667 682.666667C234.666667 612.074667 177.258667 554.666667 106.666667 554.666667z" p-id="5752"></path><path d="M618.666667 448c-5.461333 0-10.922667-2.090667-15.082667-6.250667l-42.666667-42.666667c-8.341333-8.341333-8.341333-21.824 0-30.165333l42.666667-42.666667c8.341333-8.341333 21.824-8.341333 30.165333 0s8.341333 21.824 0 30.165333L606.165333 384l27.584 27.584c8.341333 8.341333 8.341333 21.824 0 30.165333C629.589333 445.909333 624.128 448 618.666667 448z" p-id="5753"></path><path d="M405.333333 448c-5.461333 0-10.922667-2.090667-15.082667-6.250667-8.341333-8.341333-8.341333-21.824 0-30.165333L417.834667 384l-27.584-27.584c-8.341333-8.341333-8.341333-21.824 0-30.165333s21.824-8.341333 30.165333 0l42.666667 42.666667c8.341333 8.341333 8.341333 21.824 0 30.165333l-42.666667 42.666667C416.256 445.909333 410.794667 448 405.333333 448z" p-id="5754"></path><path d="M512 469.333333c-47.061333 0-85.333333-38.272-85.333333-85.333333s38.272-85.333333 85.333333-85.333333 85.333333 38.272 85.333333 85.333333S559.061333 469.333333 512 469.333333zM512 341.333333c-23.530667 0-42.666667 19.136-42.666667 42.666667s19.136 42.666667 42.666667 42.666667 42.666667-19.136 42.666667-42.666667S535.530667 341.333333 512 341.333333z" p-id="5755"></path></svg>