<?xml version="1.0" standalone="no"?><!DOCTYPE svg PUBLIC "-//W3C//DTD SVG 1.1//EN" "http://www.w3.org/Graphics/SVG/1.1/DTD/svg11.dtd"><svg t="1552743616656" class="icon" style="" viewBox="0 0 1024 1024" version="1.1" xmlns="http://www.w3.org/2000/svg" p-id="13023" xmlns:xlink="http://www.w3.org/1999/xlink" width="200" height="200"><defs><style type="text/css"></style></defs><path d="M261.376 415.184c-97.456 54.976-157.984 158.544-157.984 270.32 0 82.832 32.272 160.736 90.848 219.296 58.576 58.576 136.464 90.832 219.312 90.832 144.048 0 268.064-97.696 301.6-237.584l-53.072-12.72c-27.648 115.232-129.824 195.744-248.544 195.744-68.288 0-132.448-26.592-180.736-74.864-48.272-48.272-74.848-112.448-74.848-180.704 0-92.112 49.904-177.456 130.224-222.784l-26.8-47.536zM893.248 798.848l-56.896 22.752-153.072-286.176-312.416 0-10.24-94.272 241.232 0.112 0.016-54.576-247.152-0.096-22.512-207.488c10.048 2.544 20.656 3.408 31.552 2.112 47.616-5.696 81.568-48.912 75.872-96.528-5.712-47.6-48.88-81.568-96.496-75.872-47.6 5.696-81.568 48.912-75.888 96.496 0.832 6.928 2.528 13.536 4.848 19.792l-0.608 0.064 47.792 440.48 2.656 24.352 328.688 0 160.688 300.384 102.24-40.896-20.272-50.656z" p-id="13024"></path></svg>