<?xml version="1.0" standalone="no"?><!DOCTYPE svg PUBLIC "-//W3C//DTD SVG 1.1//EN" "http://www.w3.org/Graphics/SVG/1.1/DTD/svg11.dtd"><svg t="1552743327898" class="icon" style="" viewBox="0 0 1024 1024" version="1.1" xmlns="http://www.w3.org/2000/svg" p-id="12109" xmlns:xlink="http://www.w3.org/1999/xlink" width="200" height="200"><defs><style type="text/css"></style></defs><path d="M281.186894 28.218502C381.021028-49.003628 489.387995 45.284166 513.706566 192.048877 532.052155 192.048877 549.971103 197.168576 566.183483 206.554692 588.368847 180.956195 607.99436 145.971584 600.314812 106.720557 582.395864 14.992613 685.21649-59.243026 782.917417 67.469529 860.139547 167.303664 765.851753 275.670631 618.6604 299.989202 618.6604 318.334791 613.967343 336.68038 604.154586 352.892761 629.753082 374.651483 664.737693 394.276996 703.988721 386.597447 794.863382 368.6785 869.525662 471.072484 742.813106 569.200053 642.978972 646.422183 534.612005 552.134389 510.293434 405.369678 491.947845 405.369678 474.028897 399.823337 458.243158 390.437222 436.057795 416.035718 416.00564 451.446971 423.685188 490.697998 441.604136 581.999301 338.78351 656.661581 241.082583 529.949025 163.433812 429.688249 258.148247 321.321282 405.3396 297.429353 405.3396 279.083764 410.88594 261.164817 420.272056 244.952436 394.67356 223.193714 359.688948 203.141559 320.011279 210.821108 229.136618 228.740055 154.474338 126.346071 281.186894 28.218502M213.350879 682.686719 298.679199 682.686719C345.609775 682.686719 384.00752 721.084463 384.00752 768.015039L384.00752 1024 298.679199 1024 298.679199 938.67168 213.350879 938.67168 213.350879 1024 128.022559 1024 128.022559 768.015039C128.022559 721.084463 166.420303 682.686719 213.350879 682.686719M213.350879 768.015039 213.350879 853.343359 298.679199 853.343359 298.679199 768.015039 213.350879 768.015039M551.677669 682.686719 639.99248 682.686719 514.986491 1024 426.67168 1024 551.677669 682.686719M767.984961 682.686719 895.977441 682.686719 895.977441 768.015039 767.984961 768.015039 767.984961 938.67168 895.977441 938.67168 895.977441 1024 767.984961 1024C721.054385 1024 682.656641 985.602256 682.656641 938.67168L682.656641 768.015039C682.656641 721.084463 721.054385 682.686719 767.984961 682.686719Z" p-id="12110"></path></svg>