<?xml version="1.0" standalone="no"?><!DOCTYPE svg PUBLIC "-//W3C//DTD SVG 1.1//EN" "http://www.w3.org/Graphics/SVG/1.1/DTD/svg11.dtd"><svg t="1552755431165" class="icon" style="" viewBox="0 0 1024 1024" version="1.1" xmlns="http://www.w3.org/2000/svg" p-id="20248" xmlns:xlink="http://www.w3.org/1999/xlink" width="200" height="200"><defs><style type="text/css"></style></defs><path d="M921.6 978.299259 789.333333 803.365926 819.2 803.365926c29.866667 0 51.2-21.333333 51.2-59.733333L870.4 133.499259c0-34.133333-25.6-64-55.466667-64l-128 0c-4.266667-17.066667-17.066667-29.866667-34.133333-29.866667l-281.6 0c-17.066667 0-29.866667 12.8-34.133333 29.866667l-128 0c-29.866667 0-55.466667 29.866667-55.466667 64l0 610.133333c0 34.133333 21.333333 59.733333 51.2 59.733333l29.866667 0L102.4 978.299259 921.6 978.299259 921.6 978.299259zM273.066667 922.832593l17.066667-29.866667 456.533333 0 25.6 29.866667L273.066667 922.832593 273.066667 922.832593zM332.8 833.232593l21.333333-29.866667 324.266667 0 25.6 29.866667L332.8 833.232593 332.8 833.232593zM217.6 538.832593l0-264.533333c0-34.133333 21.333333-59.733333 55.466667-59.733333l477.866667 0c34.133333 0 55.466667 21.333333 55.466667 59.733333l0 264.533333c0 34.133333-21.333333 59.733333-55.466667 59.733333L273.066667 598.565926C238.933333 598.565926 217.6 572.965926 217.6 538.832593L217.6 538.832593zM665.6 159.099259 354.133333 159.099259c-12.8 0-25.6-12.8-25.6-25.6l0 0c0-12.8 12.8-25.6 25.6-25.6L665.6 107.899259c12.8 0 25.6 12.8 25.6 25.6l0 0C691.2 146.299259 678.4 159.099259 665.6 159.099259zM290.133333 688.165926c0 25.6-17.066667 42.666667-42.666667 42.666667s-42.666667-17.066667-42.666667-42.666667 17.066667-42.666667 42.666667-42.666667S290.133333 666.832593 290.133333 688.165926zM819.2 688.165926c0 25.6-17.066667 42.666667-42.666667 42.666667-25.6 0-42.666667-17.066667-42.666667-42.666667s17.066667-42.666667 42.666667-42.666667C802.133333 645.499259 819.2 666.832593 819.2 688.165926zM473.6 193.232593l76.8 0 0 422.4-76.8 0 0-422.4Z" p-id="20249"></path></svg>