<?xml version="1.0" standalone="no"?><!DOCTYPE svg PUBLIC "-//W3C//DTD SVG 1.1//EN" "http://www.w3.org/Graphics/SVG/1.1/DTD/svg11.dtd"><svg t="1552749867299" class="icon" style="" viewBox="0 0 1024 1024" version="1.1" xmlns="http://www.w3.org/2000/svg" p-id="13893" xmlns:xlink="http://www.w3.org/1999/xlink" width="200" height="200"><defs><style type="text/css"></style></defs><path d="M367.616 144.384 252.928 144.384c-16.384 0-29.184-13.312-29.184-29.184s13.312-29.184 29.184-29.184l114.688 0c16.384 0 29.184 13.312 29.184 29.184S384 144.384 367.616 144.384z" p-id="13894"></path><path d="M446.976 945.664 173.056 945.664c-32.768 0-59.904-26.624-59.904-59.904L113.152 486.912l1.024-30.72c0-76.8 45.568-146.432 115.2-178.176L229.376 195.072c0-16.384 13.312-29.184 29.184-29.184 16.384 0 29.184 13.312 29.184 29.184l0 103.424c0 13.312-8.704 24.576-21.504 28.16-55.296 18.432-93.696 71.168-93.696 130.56l-1.024 30.72 0 398.336c0 0.512 0.512 1.024 1.024 1.024l273.408 0c0.512 0 1.024-0.512 1.024-1.024L446.976 486.912l1.024-30.72c0-58.88-38.4-111.616-95.232-130.048-12.288-3.584-22.016-14.848-22.016-28.16L330.752 195.072c0-16.384 13.312-29.184 29.184-29.184 16.384 0 29.184 13.312 29.184 29.184l0 82.432C460.8 308.736 507.392 378.368 507.392 457.216l-1.024 30.72 0 398.336C506.368 919.04 479.744 945.664 446.976 945.664z" p-id="13895"></path><path d="M789.504 144.384l-143.872 0c-16.384 0-29.184-13.312-29.184-29.184s13.312-29.184 29.184-29.184l143.872 0c16.384 0 29.184 13.312 29.184 29.184S805.888 144.384 789.504 144.384z" p-id="13896"></path><path d="M645.632 402.944c-16.384 0-29.184-13.312-29.184-29.184L616.448 195.072c0-16.384 13.312-29.184 29.184-29.184 16.384 0 29.184 13.312 29.184 29.184l0 178.176C674.816 389.632 662.016 402.944 645.632 402.944z" p-id="13897"></path><path d="M854.016 945.664l-273.408 0c-32.768 0-59.904-26.624-59.904-59.904l0-194.048 1.024-30.72c0-72.704 15.36-124.416 47.616-157.184 0.512-0.512 1.024-1.024 1.536-2.048 29.696-36.352 45.568-81.92 45.568-128.512 0-16.384 13.312-29.184 29.184-29.184 16.384 0 29.184 13.312 29.184 29.184 0 59.392-20.48 117.248-57.344 163.84-1.536 2.56-3.072 4.608-4.608 6.144-22.016 20.48-32.768 60.928-32.768 118.784l-1.024 30.72 0 193.536c0 0.512 0.512 1.024 1.024 1.024l273.408 0c0.512 0 1.024-0.512 1.024-1.024l0-194.048 1.024-30.72c0-56.832-11.264-96.768-33.792-117.76-2.048-1.536-3.584-3.584-4.608-5.632-37.376-46.592-57.856-104.448-57.856-164.352 0-2.048 0-3.584 0.512-5.632L759.808 195.072c0-16.384 13.312-29.184 29.184-29.184 16.384 0 29.184 13.312 29.184 29.184l0 178.176c0 1.536 0 3.584-0.512 5.12 1.024 45.056 17.408 88.576 45.568 123.904 0.512 0.512 0.512 0.512 1.024 1.024 33.28 32.768 49.664 84.992 49.664 159.232l-1.024 30.72 0 193.536C913.92 919.04 886.784 945.664 854.016 945.664z" p-id="13898"></path><path d="M717.824 853.504 717.824 853.504c-16.384 0-29.184-13.312-29.184-29.184l0-259.584c0-16.384 13.312-29.184 29.184-29.184l0 0c16.384 0 29.184 13.312 29.184 29.184l0 259.584C747.008 840.192 733.696 853.504 717.824 853.504z" p-id="13899"></path><path d="M474.624 838.656l-225.28 0c-16.384 0-29.184-13.312-29.184-29.184L220.16 459.776c0-16.384 13.312-29.184 29.184-29.184l225.28 0c16.384 0 29.184 13.312 29.184 29.184s-13.312 29.184-29.184 29.184L278.528 488.96l0 291.328 196.096 0c16.384 0 29.184 13.312 29.184 29.184C503.808 825.856 491.008 838.656 474.624 838.656z" p-id="13900"></path></svg>