<?xml version="1.0" standalone="no"?><!DOCTYPE svg PUBLIC "-//W3C//DTD SVG 1.1//EN" "http://www.w3.org/Graphics/SVG/1.1/DTD/svg11.dtd"><svg t="1552742707055" class="icon" style="" viewBox="0 0 1024 1024" version="1.1" xmlns="http://www.w3.org/2000/svg" p-id="9450" xmlns:xlink="http://www.w3.org/1999/xlink" width="200" height="200"><defs><style type="text/css"></style></defs><path d="M342.016 512l84.010667 0 0 214.016-84.010667 0 0-214.016zM342.016 214.016l84.010667 0 0 128-84.010667 0 0-128zM768 384l0-214.016-512 0 0 214.016 512 0zM768 854.016l0-386.005333-512 0 0 386.005333 512 0zM768 86.016q36.010667 0 61.013333 24.021333t25.002667 59.989333l0 683.989333q0 34.005333-25.984 59.008t-59.989333 25.002667l-512 0q-34.005333 0-59.989333-25.002667t-25.984-59.008l0-683.989333q0-36.010667 25.002667-59.989333t61.013333-24.021333l512 0z" p-id="9451"></path></svg>