<?xml version="1.0" standalone="no"?><!DOCTYPE svg PUBLIC "-//W3C//DTD SVG 1.1//EN" "http://www.w3.org/Graphics/SVG/1.1/DTD/svg11.dtd"><svg t="1552749944183" class="icon" style="" viewBox="0 0 1151 1024" version="1.1" xmlns="http://www.w3.org/2000/svg" p-id="14566" xmlns:xlink="http://www.w3.org/1999/xlink" width="224.8046875" height="200"><defs><style type="text/css"></style></defs><path d="M1079.68761 602.333967a505.393288 505.393288 0 0 0 8.30591-90.339727C1087.99352 229.685473 858.308047 0 575.99928 0S64.00504 229.685473 64.00504 511.99424a505.393288 505.393288 0 0 0 8.31743 90.339727A159.96652 159.96652 0 0 0 0 735.98884c0 88.19701 71.78103 160.00108 160.00108 160.00108a158.008122 158.008122 0 0 0 63.359921-13.282543C319.103601 974.026302 443.369686 1023.98848 575.99928 1023.98848s256.895679-49.962178 352.592199-141.281103a158.008122 158.008122 0 0 0 63.359921 13.282543c88.26613 0 160.04716-71.80407 160.04716-160.00108a159.96652 159.96652 0 0 0-72.31095-133.654873z m-87.69013 229.662433a95.350921 95.350921 0 0 1-51.909055-15.494381 32.02556 32.02556 0 0 0-40.504269 4.746234c-85.558933 89.464208-200.447749 138.746707-323.596396 138.746707S337.973338 910.712462 252.402884 821.248253a32.01404 32.01404 0 0 0-40.504269-4.746234 95.82324 95.82324 0 1 1-90.558607-168.191789 31.991 31.991 0 0 0 18.247658-36.403155 450.293197 450.293197 0 0 1-11.589106-99.912835C127.99856 264.959669 328.964709 63.99352 575.99928 63.99352a450.869196 450.869196 0 0 1 46.137542 2.373117c-9.215988 79.487901-76.216225 141.626703-158.146362 141.626703a32.00252 32.00252 0 0 0 0 64.00504c113.252978 0 206.921981-84.591254 221.725163-193.846798 194.065677 49.075139 338.284377 224.720359 338.284377 433.842658a450.293197 450.293197 0 0 1-11.589106 99.901315 31.991 31.991 0 0 0 18.247658 36.403155 95.89236 95.89236 0 0 1-38.661072 183.68617z" p-id="14567"></path><path d="M383.99568 415.9982m-64.00504 0a64.00504 64.00504 0 1 0 128.01008 0 64.00504 64.00504 0 1 0-128.01008 0Z" p-id="14568"></path><path d="M768.00288 415.9982m-64.00504 0a64.00504 64.00504 0 1 0 128.01008 0 64.00504 64.00504 0 1 0-128.01008 0Z" p-id="14569"></path><path d="M881.993138 610.685957a31.96796 31.96796 0 0 0-42.117068 16.508139 287.8614 287.8614 0 0 1-527.75358 0 31.991 31.991 0 1 0-58.625207 25.620448 351.83188 351.83188 0 0 0 645.003994 0 31.96796 31.96796 0 0 0-16.508139-42.128587z" p-id="14570"></path></svg>