<?xml version="1.0" standalone="no"?><!DOCTYPE svg PUBLIC "-//W3C//DTD SVG 1.1//EN" "http://www.w3.org/Graphics/SVG/1.1/DTD/svg11.dtd"><svg t="1552755576627" class="icon" style="" viewBox="0 0 1024 1024" version="1.1" xmlns="http://www.w3.org/2000/svg" p-id="20763" xmlns:xlink="http://www.w3.org/1999/xlink" width="200" height="200"><defs><style type="text/css"></style></defs><path d="M800.2 4 239.6 4C211.5 4 189 25.9 189 52.6l0 922.2c0 26.8 22.5 48.2 50.6 48.2l560.6 0c28.1 0 50.8-21.4 50.8-48.2L851 52.6C851 25.9 828.3 4 800.2 4zM800 972 239 972 239 514l561 0L800 972zM239 462 239 55l561.2 0 0 407L239 462z" p-id="20764"></path><path d="M291 335l50 0 0 103-50 0 0-103Z" p-id="20765"></path><path d="M291 565l50 0 0 152-50 0 0-152Z" p-id="20766"></path></svg>