<?xml version="1.0" standalone="no"?><!DOCTYPE svg PUBLIC "-//W3C//DTD SVG 1.1//EN" "http://www.w3.org/Graphics/SVG/1.1/DTD/svg11.dtd"><svg t="1552742442970" class="icon" style="" viewBox="0 0 1024 1024" version="1.1" xmlns="http://www.w3.org/2000/svg" p-id="7247" xmlns:xlink="http://www.w3.org/1999/xlink" width="200" height="200"><defs><style type="text/css"></style></defs><path d="M0 256v512h64v32h128v-32h640v32h128v-32h64V256H0z m64 64h896v384H64V320z m672 32c-88 0-160 72-160 160s72 160 160 160 160-72 160-160-72-160-160-160zM128 416v64h64v-64H128z m128 0v64h64v-64H256z m128 0v64h64v-64h-64z m352 0c53.408 0 96 42.592 96 96s-42.592 96-96 96-96-42.592-96-96 42.592-96 96-96zM128 544v64h64v-64H128z m128 0v64h64v-64H256z m128 0v64h64v-64h-64z" p-id="7248"></path></svg>