<?xml version="1.0" standalone="no"?><!DOCTYPE svg PUBLIC "-//W3C//DTD SVG 1.1//EN" "http://www.w3.org/Graphics/SVG/1.1/DTD/svg11.dtd"><svg t="1552749913033" class="icon" style="" viewBox="0 0 1024 1024" version="1.1" xmlns="http://www.w3.org/2000/svg" p-id="14273" xmlns:xlink="http://www.w3.org/1999/xlink" width="200" height="200"><defs><style type="text/css"></style></defs><path d="M696.32 614.4h-358.4c-43.52 0-76.8 33.28-76.8 76.8v51.2c0 15.36 12.8 25.6 25.6 25.6h51.2v179.2c0 15.36 12.8 25.6 25.6 25.6h307.2c12.8 0 25.6-10.24 25.6-25.6v-179.2h51.2c12.8 0 25.6-10.24 25.6-25.6v-51.2c0-43.52-35.84-76.8-76.8-76.8z m-51.2 307.2h-256v-153.6h256v153.6z m76.8-204.8h-409.6v-25.6c0-12.8 12.8-25.6 25.6-25.6h358.4c12.8 0 25.6 12.8 25.6 25.6v25.6z m-130.56-657.92c-43.52-7.68-84.48-7.68-128-5.12-217.6 25.6-391.68 207.36-407.04 424.96-10.24 166.4 66.56 314.88 189.44 404.48a25.6 25.6 0 0 0 40.96-20.48c0-7.68-5.12-15.36-10.24-20.48-110.08-81.92-176.64-217.6-166.4-358.4 12.8-194.56 168.96-355.84 360.96-378.88 15.36-2.56 30.72-2.56 46.08-2.56 225.28 0 409.6 184.32 409.6 409.6 0 133.12-64 256-168.96 330.24-7.68 5.12-10.24 12.8-10.24 20.48 0 20.48 23.04 33.28 40.96 20.48 120.32-87.04 197.12-230.4 189.44-389.12-10.24-217.6-174.08-396.8-386.56-435.2z" p-id="14274"></path><path d="M824.32 512m-25.6 0a25.6 25.6 0 1 0 51.2 0 25.6 25.6 0 1 0-51.2 0Z" p-id="14275"></path><path d="M209.92 512m-25.6 0a25.6 25.6 0 1 0 51.2 0 25.6 25.6 0 1 0-51.2 0Z" p-id="14276"></path><path d="M281.6 345.6v-10.24c0-2.56 2.56-5.12 5.12-5.12 2.56-2.56 5.12-2.56 7.68-2.56h58.88c12.8 0 25.6 0 33.28 2.56 10.24 2.56 17.92 5.12 23.04 10.24s10.24 12.8 12.8 20.48 5.12 20.48 5.12 33.28-2.56 23.04-5.12 33.28-7.68 15.36-12.8 23.04-12.8 10.24-23.04 12.8c-10.24 2.56-20.48 5.12-33.28 5.12h-33.28v61.44c0 5.12-2.56 7.68-5.12 10.24s-7.68 5.12-15.36 5.12-12.8-2.56-15.36-5.12c-2.56-2.56-5.12-7.68-5.12-10.24v-184.32z m40.96 84.48h33.28c12.8 0 23.04-2.56 25.6-7.68 5.12-5.12 7.68-15.36 7.68-28.16 0-7.68 0-12.8-2.56-15.36-2.56-5.12-5.12-7.68-7.68-10.24-2.56-2.56-7.68-5.12-10.24-5.12s-7.68-2.56-12.8-2.56h-33.28v69.12zM488.96 506.88h74.24c7.68 0 12.8 0 15.36 2.56s5.12 7.68 5.12 12.8-2.56 10.24-5.12 12.8c-2.56 2.56-7.68 2.56-15.36 2.56h-94.72c-5.12 0-10.24 0-15.36-2.56-2.56-2.56-5.12-7.68-5.12-12.8v-179.2c0-5.12 2.56-10.24 5.12-12.8 2.56-2.56 7.68-2.56 15.36-2.56h94.72c5.12 0 10.24 0 12.8 5.12 2.56 2.56 5.12 7.68 5.12 12.8s-2.56 10.24-5.12 12.8c-2.56 2.56-7.68 2.56-12.8 2.56h-74.24v51.2h71.68c7.68 0 10.24 2.56 15.36 5.12 2.56 2.56 5.12 7.68 5.12 12.8s-2.56 10.24-5.12 12.8c-2.56 2.56-7.68 2.56-15.36 2.56h-71.68v61.44zM704 360.96v166.4c0 5.12-2.56 7.68-5.12 10.24s-7.68 5.12-15.36 5.12-12.8-2.56-15.36-5.12c-2.56-2.56-5.12-7.68-5.12-10.24v-166.4h-38.4c-2.56 0-7.68-2.56-10.24-5.12-2.56-2.56-5.12-7.68-5.12-12.8s2.56-10.24 5.12-12.8 7.68-5.12 10.24-5.12h117.76c5.12 0 7.68 2.56 10.24 5.12s5.12 7.68 5.12 12.8c0 7.68-2.56 10.24-5.12 12.8-2.56 2.56-7.68 5.12-10.24 5.12h-38.4z" p-id="14277"></path></svg>