<?xml version="1.0" standalone="no"?><!DOCTYPE svg PUBLIC "-//W3C//DTD SVG 1.1//EN" "http://www.w3.org/Graphics/SVG/1.1/DTD/svg11.dtd"><svg t="1552742339371" class="icon" style="" viewBox="0 0 1024 1024" version="1.1" xmlns="http://www.w3.org/2000/svg" p-id="6475" xmlns:xlink="http://www.w3.org/1999/xlink" width="200" height="200"><defs><style type="text/css"></style></defs><path d="M953.704 901.336c-18.656 0-37.328 0-55.984 0-23.992-8.208-32.04-25.576-31.944-50.136 0.504-136.536 0.24-273.08 0.24-409.624 0-3.88 0-7.768 0-11.728-236.76 0-472.28 0-708.344 0 0 4.792 0 8.76 0 12.728 0 136.2-0.272 272.424 0.24 408.624 0.088 24.552-7.96 41.92-31.952 50.136-18.664 0-37.32 0-55.984 0-23.584-8.88-30.88-26.36-30.76-50.824 0.672-136.168 0.328-272.32 0.328-408.496 0-3.96 0-7.912 0-12.76C18.856 427.632 6.64 415.872 0 397.496c0-31.992 0-63.984 0-95.976 4.496-6.816 7.848-14.872 13.68-20.248 56.536-52.152 113.536-103.792 170.272-155.72 9.16-8.376 19.68-11.824 31.84-11.816 197.12 0.048 394.256 0.056 591.368-0.016 12.944-0.008 23.752 4.072 33.392 12.968 52.888 48.744 106.256 96.96 158.88 145.984 9.464 8.808 16.232 20.496 24.24 30.848 0 31.328 0 62.648 0 93.976-6.64 18.376-18.848 30.136-39.544 31.768 0 4.84 0 8.8 0 12.76 0 136.168-0.344 272.328 0.328 408.496C984.584 874.976 977.296 892.456 953.704 901.336z" p-id="6476"></path><path d="M197.408 468.728c26.4 0 51.864 0 77.768 0 0.208 3.208 0.52 5.808 0.52 8.4 0.032 61.28 0.128 122.576-0.016 183.856-0.064 28.168-19.68 46.272-45.656 42.664-16.024-2.232-29.6-15.304-32.168-31.224-0.632-3.928-0.984-7.952-0.984-11.928-0.064-61.288-0.048-122.568-0.024-183.856C196.848 474.344 197.168 472.056 197.408 468.728z" p-id="6477"></path><path d="M747.952 468.504c26.872 0 52.08 0 77.968 0 0.336 2.888 0.888 5.44 0.888 7.992 0.048 61.28 0.152 122.576-0.024 183.856-0.064 23.12-12.088 39.376-31.016 43.032-24.552 4.752-45.968-11.832-47.592-37.272-0.624-9.616-0.216-19.304-0.216-28.968-0.008-52.288-0.008-104.584-0.008-156.88C747.952 476.664 747.952 473.064 747.952 468.504z" p-id="6478"></path></svg>