<?xml version="1.0" standalone="no"?><!DOCTYPE svg PUBLIC "-//W3C//DTD SVG 1.1//EN" "http://www.w3.org/Graphics/SVG/1.1/DTD/svg11.dtd"><svg t="1552743544759" class="icon" style="" viewBox="0 0 1024 1024" version="1.1" xmlns="http://www.w3.org/2000/svg" p-id="12799" xmlns:xlink="http://www.w3.org/1999/xlink" width="200" height="200"><defs><style type="text/css"></style></defs><path d="M958.5 424.5c-15.4-56.1-32.8-112.7-49.6-167.5-7.2-23.6-14.5-47.2-21.6-70.9l-1.2-4H138l-1.2 4c-7.3 24.3-14.9 48.4-22.4 72.6-16.9 54-34.5 109.9-48.4 165.7-10 40.3 0.5 81.5 29.1 112.9 29.8 32.8 73.5 48.6 117.1 42 33.7-5 62.3-21.9 87.1-51.5 27.9 35.4 63.8 53.3 106.8 53.3h0.5c42-0.1 78.2-18.3 105.1-52.8 28.2 33.2 66.5 52.2 106.2 52.4h0.8c40.1 0 77.8-18.5 107-52.4 0.8 0.9 1.6 1.8 2.3 2.6 4.4 5 8.5 9.6 12.9 13.9 40.8 39.7 104.7 47.5 155.3 19.1 49.7-27.8 76.5-87.7 62.3-139.4zM174.3 236.7c2.3-8.2 5.8-8.5 15.4-8.2 1.4 0 2.7 0.1 4.1 0.1h298.6l161.9 0.1c59.7 0.1 121.3 0.2 182-0.4h0.8c12.8 0 16.9 3.1 20.3 15.3 8.6 30.9 18 62.1 27.1 92.3 8.6 28.6 17.5 58.2 25.7 87.5 6.8 24.3 4.2 48.7-7.4 68.8-10.8 18.7-28.5 32.1-50 37.6-21.7 5.6-42.7 2.8-60.9-8.1-19.7-11.8-34-32.3-40.2-57.7-0.9-3.8-1.9-7.7-3.1-12.1l-3.1-11.9h-40.2v5.7c-0.2 46.3-25.4 78.9-65.9 85.1-51.2 7.9-77.8-14.8-101.8-86.6l-1.3-3.9h-38.8l-1 4.4c-14.7 61.3-38.8 86.7-83.1 87.7h-2.6c-43.4 0-68.8-26.3-84.6-87.5l-1.1-4.3h-41.3l-2.5 11.7c-1 4.9-2.1 10.1-3.3 15.3-4.9 22.3-17.7 41-35.9 52.5-18.3 11.6-40.7 15.2-63.2 10.1-21.4-4.9-40.4-18.7-52.1-38-11.3-18.7-14.5-40.1-9.1-60.4 10.7-39.9 22.8-80.2 34.4-119.2 7.4-25.4 15-50.6 22.2-75.9zM869.4 607.2v-6.8l-50.6 9v68.7c0 54.1 0 108.2-0.1 162.3 0 22.8-4 26.9-26.3 26.9-188.5 0.2-377 0.1-565.5 0-22.2 0-26.4-4.3-26.5-26.7-0.2-49-0.1-98-0.1-147v-89l-50.5-3.3v6.1c0 24.1-0.1 48-0.2 71.9-0.2 57-0.4 116 0.7 173.7 0.7 38.2 30.5 64.9 72.3 65 96.6 0.1 193.1 0.2 289.6 0.2 94.2 0 188.5-0.1 282.7-0.2 45 0 72.6-25.5 73.8-68.1 1.5-57 1.2-115.2 0.9-171.4-0.1-23.7-0.2-47.5-0.2-71.3zM170.8 159.2c7.1 3.6 15.4 3.4 23.4 3.1 2-0.1 4.3 0.1 5.8-0.1 83.3 0.1 166.5 0.1 249.8 0.1h113.9c84.4 0 168.9 0 253.3-0.1 2 0 4 0.1 6.1 0.2 2.3 0.1 4.6 0.2 6.8 0.2 4.9 0 9.7-0.5 14.1-2.6 7.3-3.5 18.4-13.3 18.8-23.1 0.4-9.8-9.2-20.6-16.2-25.1-5.8-3.8-13.6-3.5-20.3-3.2-1.6 0.1-3.3 0.1-4.8 0.1-208.7-0.1-417.4-0.1-626 0-1.6 0-3.2-0.1-4.9-0.1-6.6-0.3-14-0.5-20 2.8-7 3.9-16.5 14.1-16 23.1 0.4 9 7.8 20.4 16.2 24.7z" p-id="12800"></path></svg>