<?xml version="1.0" standalone="no"?><!DOCTYPE svg PUBLIC "-//W3C//DTD SVG 1.1//EN" "http://www.w3.org/Graphics/SVG/1.1/DTD/svg11.dtd"><svg t="1552742782127" class="icon" style="" viewBox="0 0 1024 1024" version="1.1" xmlns="http://www.w3.org/2000/svg" p-id="9619" xmlns:xlink="http://www.w3.org/1999/xlink" width="200" height="200"><defs><style type="text/css"></style></defs><path d="M219.5017 18.325935C219.5017 6.142771 225.542092 0 237.725255 0S256.05119 6.142771 256.05119 18.325935l0 182.84983c0 31.942412-10.647471 59.789642-31.942412 83.439312C202.711458 308.162368 176.809438 322.188362 146.402719 326.795441l0 678.673865C146.402719 1017.754849 140.259948 1023.795241 128.076785 1023.795241S109.75085 1017.754849 109.75085 1005.469306L109.75085 326.795441C79.344131 322.188362 53.442112 308.162368 32.044791 284.512697 10.74985 260.863027 0.10238 233.118176 0.10238 201.073385L0.10238 18.325935C0.10238 6.142771 6.245151 0 18.428314 0s18.325935 6.142771 18.325935 18.325935l0 182.84983c0 21.397321 6.859428 40.337532 20.578284 57.127774C70.94901 274.991402 88.455909 285.638872 109.75085 290.245951L109.75085 18.325935C109.75085 6.142771 115.893621 0 128.076785 0s18.325935 6.142771 18.325935 18.325935l0 271.920016C167.69766 285.638872 185.204559 274.991402 198.923415 258.20116c13.718856-16.790242 20.578284-35.730454 20.578284-57.127774L219.5017 18.325935zM530.325935 0c12.183163 0 18.325935 6.142771 18.325935 18.325935l0 987.245751c0 12.285543-6.142771 18.325935-18.325935 18.325935S512 1017.754849 512 1005.469306L512 619.293741C469.307738 613.253349 434.293941 588.477504 406.856229 545.068586 379.418516 501.659668 365.69966 449.446111 365.69966 388.530294c0-111.184163 15.664067-203.735253 46.889822-277.653269C443.815237 36.959008 483.026595 0 530.325935 0zM402.35153 388.530294c0 50.268346 10.237952 93.370126 30.816237 129.10058C453.746051 553.463707 480.057588 575.168166 512 582.744251l0-541.587682C483.026595 54.875425 457.534093 93.677265 435.420116 157.664467 413.306139 221.65167 402.35153 298.641072 402.35153 388.530294zM1023.89762 237.622875c0 56.411118-13.309338 102.789042-40.030394 139.440912C957.24855 413.613277 921.825235 434.191562 877.597281 438.79864l0 566.773045c0 12.285543-6.142771 18.325935-18.325935 18.325935-12.183163 0-18.325935-6.040392-18.325935-18.325935L840.945411 438.79864C796.922216 434.191562 761.4989 413.613277 734.777844 377.063787c-26.618676-36.54949-40.030394-83.029794-40.030394-139.440912 0-65.420516 15.971206-121.422116 48.015997-168.004799C774.808238 23.240152 813.610078 0 859.373725 0c45.661268 0 84.565487 23.240152 116.507898 69.720456C1007.926415 116.20076 1023.89762 172.20236 1023.89762 237.622875zM731.39932 237.622875c0 50.268346 11.466507 90.29874 34.297141 119.988802 22.830634 29.690062 54.056389 44.535093 93.677265 44.535093 39.620876 0 70.846631-14.845031 93.677265-44.535093 22.830634-29.690062 34.297141-69.720456 34.297141-119.988802 0-56.308738-12.592681-104.017596-37.675665-142.819436-25.185363-38.904219-55.182563-58.253949-90.29874-58.253949-35.013797 0-65.113377 19.45211-90.29874 58.253949C743.992002 133.707658 731.39932 181.314137 731.39932 237.622875z" p-id="9620"></path></svg>