<svg xmlns="http://www.w3.org/2000/svg" xmlns:xlink="http://www.w3.org/1999/xlink" version="1.1" x="0px" y="0px" viewBox="0 0 100 125" style="enable-background:new 0 0 100 100;" xml:space="preserve"><polygon points="70,95 70,67.5 75,67.5 75,62.5 25,62.5 25,67.5 30,67.5 30,95 35,95 35,67.5 65,67.5 65,95 "/><polygon points="10,82.5 20,82.5 20,95 25,95 25,77.5 10,77.5 10,57.5 5,57.5 5,95 10,95 "/><path d="M47.5,5v13.964L33.964,32.5H47.5c0,1.381,1.119,2.5,2.5,2.5s2.5-1.119,2.5-2.5h13.536L52.5,18.964V5H47.5z M53.964,27.5  h-7.929L50,23.536L53.964,27.5z"/><polygon points="90,77.5 75,77.5 75,95 80,95 80,82.5 90,82.5 90,95 95,95 95,57.5 90,57.5 "/><text x="0" y="115" fill="#000000" font-size="5px" font-weight="bold" font-family="'Helvetica Neue', Helvetica, Arial-Unicode, Arial, Sans-serif">Created by Arthur Shlain</text><text x="0" y="120" fill="#000000" font-size="5px" font-weight="bold" font-family="'Helvetica Neue', Helvetica, Arial-Unicode, Arial, Sans-serif">from the Noun Project</text></svg>