<?xml version="1.0" standalone="no"?><!DOCTYPE svg PUBLIC "-//W3C//DTD SVG 1.1//EN" "http://www.w3.org/Graphics/SVG/1.1/DTD/svg11.dtd"><svg t="1552743216877" class="icon" style="" viewBox="0 0 1024 1024" version="1.1" xmlns="http://www.w3.org/2000/svg" p-id="11244" xmlns:xlink="http://www.w3.org/1999/xlink" width="200" height="200"><defs><style type="text/css"></style></defs><path d="M514.1 824.8c70.579 0 128-57.421 128-128s-57.421-128-128-128-128 57.421-128 128 57.421 128 128 128z m0-196c37.495 0 68 30.505 68 68s-30.505 68-68 68-68-30.505-68-68 30.504-68 68-68z" p-id="11245"></path><path d="M901.8 434H763.6V293.5C763.6 167 669.1 64.1 553 64.1h-77.7c-116.2 0-210.7 103-210.7 229.5V434H125.8c-33 0-60 27-60 60v406c0 33 27 60 60 60h776c33 0 60-27 60-60V494c0-33-27-60-60-60zM369.9 172.7c28.5-31.4 65.9-48.7 105.4-48.7H553c39.5 0 76.9 17.3 105.4 48.7 29.2 32.3 45.3 75.1 45.3 120.8V434h-379V293.5h-0.1c0-45.6 16.1-88.5 45.3-120.8zM901.8 900h-776V494h776v406z" p-id="11246"></path></svg>