<?xml version="1.0" standalone="no"?><!DOCTYPE svg PUBLIC "-//W3C//DTD SVG 1.1//EN" "http://www.w3.org/Graphics/SVG/1.1/DTD/svg11.dtd"><svg t="1552755506953" class="icon" style="" viewBox="0 0 1024 1024" version="1.1" xmlns="http://www.w3.org/2000/svg" p-id="20417" xmlns:xlink="http://www.w3.org/1999/xlink" width="200" height="200"><defs><style type="text/css"></style></defs><path d="M341.34471 341.310579l682.621159 0 0 68.262116L341.34471 409.572695 341.34471 341.310579zM0.034131 0l273.048463 0 0 409.572695L0.034131 409.572695 0.034131 0zM68.296247 341.310579l136.524232 0 0-273.048463L68.296247 68.262116 68.296247 341.310579zM1023.965869 477.834811c-4.812479 0-0.102393 9.590827-0.30718 14.335044-5.870542 142.360643-99.082461 261.853476-227.346977 307.179521 5.017266 14.744617 12.116526 32.424505 22.867809 53.927072 34.131058 68.262116 102.393174 102.393174 102.393174 102.393174l0 68.262116L443.737884 1023.931738l0-68.262116c0 0 59.251517-33.414306 102.393174-102.393174 13.038064-20.854076 20.888207-38.192654 26.076128-52.766616-113.24685-38.807013-199.70082-135.227252-223.968002-254.412906L68.296247 546.096927l0-68.262116C68.296247 477.834811 777.880941 477.834811 1023.965869 477.834811zM644.257849 747.640824c-4.5053 26.758749-13.311113 66.965136-29.864676 105.635624-22.492367 52.493567-68.262116 102.393174-68.262116 102.393174l273.048463 0c0 0-44.063196-45.906273-68.262116-102.393174-16.007466-37.339377-24.949803-78.364909-29.659889-105.669755 109.765482-15.632025 198.608626-95.942404 225.811079-201.509766L418.241984 546.096927C445.444437 651.766682 534.389974 732.077062 644.257849 747.640824z" p-id="20418"></path></svg>