<?xml version="1.0" standalone="no"?><!DOCTYPE svg PUBLIC "-//W3C//DTD SVG 1.1//EN" "http://www.w3.org/Graphics/SVG/1.1/DTD/svg11.dtd"><svg t="1552742600639" class="icon" style="" viewBox="0 0 1024 1024" version="1.1" xmlns="http://www.w3.org/2000/svg" p-id="8612" xmlns:xlink="http://www.w3.org/1999/xlink" width="200" height="200"><defs><style type="text/css"></style></defs><path d="M488.719865 0 488.719865 46.560269 442.159596 46.560269 442.159596 93.120538 581.840404 93.120538 581.840404 46.560269 535.280135 46.560269 537.701269 0Z" p-id="8613"></path><path d="M139.517847 884.645114l331.602237 0-97.916246 139.354886 46.979312 0L518.099395 884.645114l18.577547 0 97.869686 139.354886 46.979312 0L583.702815 884.645114l300.779339 0c0 0 23.280135 4.143864 23.280135-21.184922C907.762288 838.084845 884.482153 838.084845 884.482153 838.084845l-744.964307 0c0 0-23.280135 0-23.280135 25.328786C116.237712 888.788978 139.517847 884.645114 139.517847 884.645114z" p-id="8614"></path><path d="M116.237712 232.801346l0 465.602692c0 93.120538 93.120538 93.120538 93.120538 93.120538l605.283499 0c0 0 93.120538 0 93.120538-93.120538L907.762288 232.801346c0-93.120538-93.120538-93.120538-93.120538-93.120538L209.35825 139.680808C209.35825 139.680808 116.237712 139.680808 116.237712 232.801346zM861.202019 232.801346l0 465.602692c0 46.560269-46.560269 46.560269-46.560269 46.560269L209.35825 744.964307c0 0-46.560269 0-46.560269-46.560269L162.797981 232.801346c0-46.560269 46.560269-46.560269 46.560269-46.560269l605.283499 0C814.64175 186.241077 861.202019 186.241077 861.202019 232.801346z" p-id="8615"></path></svg>