<?xml version="1.0" standalone="no"?><!DOCTYPE svg PUBLIC "-//W3C//DTD SVG 1.1//EN" "http://www.w3.org/Graphics/SVG/1.1/DTD/svg11.dtd"><svg t="1552743421993" class="icon" style="" viewBox="0 0 1365 1024" version="1.1" xmlns="http://www.w3.org/2000/svg" p-id="12630" xmlns:xlink="http://www.w3.org/1999/xlink" width="266.6015625" height="200"><defs><style type="text/css"></style></defs><path d="M145.791 790.321h996.089c0.008 0 0.014 0 0.021 0 16.17 0 29.278-13.108 29.278-29.278 0-0.007 0-0.015 0-0.022 0-250.446-175.679-460.265-410.157-513.758v-62.416c0-38.338-38.592-68.354-87.887-68.354h-58.598c-49.297 0-87.887 30.016-87.887 68.354v62.427c-234.478 53.483-410.157 263.303-410.157 513.749 0 0.007 0 0.014 0 0.021 0 16.17 13.108 29.278 29.278 29.278 0.007 0 0.015 0 0.022 0zM585.132 185.648c1.233-3.006 11.792-10.547 29.415-10.547h58.598c17.624 0 28.181 7.552 29.299 9.756v52.291c-17.595-2.202-37.958-3.459-58.614-3.459s-41.019 1.257-61.016 3.698zM643.836 292.276c248.621 0 452.672 194.579 467.839 439.456h-935.677c15.166-244.877 219.217-439.456 467.839-439.456zM1141.88 848.909h-996.089c-16.182 0-29.299 13.118-29.299 29.299 0 16.182 13.118 29.299 29.299 29.299h996.089c16.182 0 29.3-13.118 29.3-29.299s-13.117-29.299-29.3-29.299z" p-id="12631"></path></svg>