<?xml version="1.0" standalone="no"?><!DOCTYPE svg PUBLIC "-//W3C//DTD SVG 1.1//EN" "http://www.w3.org/Graphics/SVG/1.1/DTD/svg11.dtd"><svg t="1553218643447" class="icon" style="" viewBox="0 0 1024 1024" version="1.1" xmlns="http://www.w3.org/2000/svg" p-id="3241" xmlns:xlink="http://www.w3.org/1999/xlink" width="200" height="200"><defs><style type="text/css"></style></defs><path d="M430.938 665.604l59.726 59.728L704 512 490.664 298.666l-59.726 59.73 110.938 110.938L128 469.334l0 85.332 411.728 0L430.938 665.604zM810.668 128 213.332 128C166.396 128 128 166.396 128 213.332L128 384l85.332 0 0-170.666 597.336 0 0 597.336L213.332 810.67 213.332 640 128 640l0 170.668C128 857.604 166.396 896 213.332 896l597.336 0C857.604 896 896 857.604 896 810.668L896 213.332C896 166.396 857.604 128 810.668 128z" p-id="3242"></path></svg>