<?xml version="1.0" standalone="no"?><!DOCTYPE svg PUBLIC "-//W3C//DTD SVG 1.1//EN" "http://www.w3.org/Graphics/SVG/1.1/DTD/svg11.dtd"><svg t="1553244450873" class="icon" style="" viewBox="0 0 1024 1024" version="1.1" xmlns="http://www.w3.org/2000/svg" p-id="4453" xmlns:xlink="http://www.w3.org/1999/xlink" width="200" height="200"><defs><style type="text/css"></style></defs><path d="M482.133333 853.333333 42.666667 853.333333c-25.6 0-42.666667-17.066667-42.666667-42.666667L0 42.666667c0-25.6 17.066667-42.666667 42.666667-42.666667l298.666667 0c25.6 0 42.666667 17.066667 42.666667 42.666667l0 42.666667 469.333333 0c25.6 0 42.666667 17.066667 42.666667 42.666667l0 170.666667c0 25.6-17.066667 42.666667-42.666667 42.666667s-42.666667-17.066667-42.666667-42.666667L810.666667 170.666667 341.333333 170.666667C315.733333 170.666667 298.666667 153.6 298.666667 128L298.666667 85.333333 85.333333 85.333333l0 682.666667 396.8 0c25.6 0 42.666667 17.066667 42.666667 42.666667S507.733333 853.333333 482.133333 853.333333z" p-id="4454"></path><path d="M469.333333 853.333333 42.666667 853.333333c-12.8 0-25.6-4.266667-34.133333-17.066667C0 827.733333 0 814.933333 0 802.133333l128-512C132.266667 268.8 149.333333 256 170.666667 256l810.666667 0c12.8 0 25.6 4.266667 34.133333 17.066667C1024 281.6 1024 298.666667 1024 311.466667l-72.533333 251.733333c-4.266667 21.333333-29.866667 34.133333-51.2 29.866667-21.333333-4.266667-34.133333-29.866667-29.866667-51.2L925.866667 341.333333 204.8 341.333333 98.133333 768 469.333333 768c25.6 0 42.666667 17.066667 42.666667 42.666667S494.933333 853.333333 469.333333 853.333333z" p-id="4455"></path><path d="M853.333333 768l-256 0c-25.6 0-42.666667-17.066667-42.666667-42.666667s17.066667-42.666667 42.666667-42.666667l256 0c25.6 0 42.666667 17.066667 42.666667 42.666667S878.933333 768 853.333333 768z" p-id="4456"></path><path d="M725.333333 896c-25.6 0-42.666667-17.066667-42.666667-42.666667l0-256c0-25.6 17.066667-42.666667 42.666667-42.666667s42.666667 17.066667 42.666667 42.666667l0 256C768 878.933333 750.933333 896 725.333333 896z" p-id="4457"></path><path d="M725.333333 1024c-166.4 0-298.666667-132.266667-298.666667-298.666667s132.266667-298.666667 298.666667-298.666667 298.666667 132.266667 298.666667 298.666667S891.733333 1024 725.333333 1024zM725.333333 512c-119.466667 0-213.333333 93.866667-213.333333 213.333333s93.866667 213.333333 213.333333 213.333333 213.333333-93.866667 213.333333-213.333333S844.8 512 725.333333 512z" p-id="4458"></path></svg>