<?xml version="1.0" standalone="no"?><!DOCTYPE svg PUBLIC "-//W3C//DTD SVG 1.1//EN" "http://www.w3.org/Graphics/SVG/1.1/DTD/svg11.dtd"><svg t="1553219913978" class="icon" style="" viewBox="0 0 1024 1024" version="1.1" xmlns="http://www.w3.org/2000/svg" p-id="5276" xmlns:xlink="http://www.w3.org/1999/xlink" width="200" height="200"><defs><style type="text/css"></style></defs><path d="M517.2 533.5c-69.1 0-125.2 56.4-125.2 125.8 0 58.9 40.5 108.4 95 122v72.9c0 16.5 13.5 30 30 30s30-13.5 30-30v-95.5c0.2-1.2 0.2-2.5 0.2-3.7 0-16.6-13.4-30-30-30-36 0-65.2-29.5-65.2-65.8s29.3-65.8 65.2-65.8c19.9 0 38.4 9 50.9 24.6 9.4 11.8 14.3 26 14.3 41.1 0 9.7-2 18.9-6 27.6-6.9 15.1-0.3 32.9 14.7 39.8 15.1 6.9 32.9 0.3 39.8-14.7 7.6-16.6 11.5-34.3 11.5-52.7 0-28.4-9.7-56.3-27.4-78.5-23.8-29.8-59.5-47.1-97.8-47.1z" p-id="5277"></path><path d="M836 394h-53l-0.2-127.5c0-31-5.3-61.5-15.8-90.6C728.9 70.7 628.9 0 518 0h-11.2c-70.5 0-137 27.8-187.2 78.3-50.1 50.5-77.7 117.3-77.7 188.2V394H188c-33 0-60 27-60 60v516c0 29.7 24.3 54 54 54h660c29.7 0 54-24.3 54-54V454c0-33-27-60-60-60zM301.9 266.5c0-54.9 21.4-106.8 60.3-145.9C401 81.5 452.3 60 506.7 60H518c85.7 0 163.1 54.8 192.6 136.4 8.1 22.5 12.3 46.1 12.3 70.2L723 394H301.9V266.5zM188 964V454.1l0.1-0.1h647.8l0.1 0.1V964H188z" p-id="5278"></path></svg>