<?xml version="1.0" standalone="no"?><!DOCTYPE svg PUBLIC "-//W3C//DTD SVG 1.1//EN" "http://www.w3.org/Graphics/SVG/1.1/DTD/svg11.dtd"><svg t="1552617333541" class="icon" style="" viewBox="0 0 1024 1024" version="1.1" xmlns="http://www.w3.org/2000/svg" p-id="2417" xmlns:xlink="http://www.w3.org/1999/xlink" width="200" height="200"><defs><style type="text/css"></style></defs><path d="M918.4 314.656L671.584 72.672c-6.08-5.92-14.016-8.672-22.752-9.12-8.512 0.096-16.64 3.552-22.56 9.632l-459.2 470.4c-4.416 4.512-7.392 10.272-8.576 16.448L96.544 890.688c-1.984 10.592 1.472 21.44 9.216 28.896a31.977 31.977 0 0 0 22.24 9.024c2.304 0 4.672-0.256 6.976-0.768l292.448-65.216c6.112-1.344 11.712-4.512 16.064-9.024l475.584-493.856c12.16-12.672 11.872-32.8-0.672-45.088zM428.352 803.104c-6.304 6.688-14.784 10.048-23.296 10.048a32.073 32.073 0 0 1-21.952-8.672L200.992 633.088c-12.864-12.128-13.472-32.384-1.344-45.248s32.352-13.472 45.248-1.376l182.112 171.392c12.864 12.128 13.472 32.352 1.344 45.248z" p-id="2418"></path></svg>