<?xml version="1.0" encoding="utf-8"?>
<!-- Generator: Adobe Illustrator 16.0.0, SVG Export Plug-In . SVG Version: 6.00 Build 0)  -->
<!DOCTYPE svg PUBLIC "-//W3C//DTD SVG 1.1//EN" "http://www.w3.org/Graphics/SVG/1.1/DTD/svg11.dtd">
<svg version="1.1" id="レイヤー_1" xmlns="http://www.w3.org/2000/svg" xmlns:xlink="http://www.w3.org/1999/xlink" x="0px"
	 y="0px" width="841.89px" height="595.281px" viewBox="0 0 841.89 595.281" enable-background="new 0 0 841.89 595.281"
	 xml:space="preserve">
<g>
	<g>
		<g>
			<defs>
				<rect id="SVGID_1_" x="574.289" y="278.28" width="68.912" height="40.851"/>
			</defs>
			<clipPath id="SVGID_2_">
				<use xlink:href="#SVGID_1_"  overflow="visible"/>
			</clipPath>
			<path clip-path="url(#SVGID_2_)" fill="#05CE7C" d="M621.675,302.38l21.525-8.89l-3.691-8.726
				c-0.98-2.32-2.203-4.487-3.619-6.484l-30.496,12.596l-11.137,4.6l-19.969,8.249c0.953,5.778,3.348,11.026,6.83,15.405
				l19.031-7.859L621.675,302.38z"/>
		</g>
	</g>
</g>
<path fill="#05CE7C" d="M306.419,331.119c-18.362,0-33.303-14.939-33.303-33.304c0-18.362,14.941-33.302,33.303-33.302
	c18.363,0,33.304,14.94,33.304,33.302C339.723,316.179,324.782,331.119,306.419,331.119 M306.419,282.816
	c-8.271,0-15,6.729-15,14.999c0,8.271,6.729,15.001,15,15.001s14.999-6.729,14.999-15.001
	C321.418,289.545,314.69,282.816,306.419,282.816"/>
<g>
	<g>
		<g>
			<defs>
				<rect id="SVGID_3_" x="193.853" y="263.935" width="27.784" height="68.375"/>
			</defs>
			<clipPath id="SVGID_4_">
				<use xlink:href="#SVGID_3_"  overflow="visible"/>
			</clipPath>
			<path clip-path="url(#SVGID_4_)" fill="#00B3E3" d="M221.637,332.31h-18.79v-49.584h-8.994v-18.79h9.396
				c10.14,0,18.389,8.249,18.389,18.388L221.637,332.31L221.637,332.31z"/>
		</g>
	</g>
</g>
<g>
	<g>
		<g>
			<defs>
				<rect id="SVGID_5_" x="202.847" y="263.887" width="60.079" height="68.423"/>
			</defs>
			<clipPath id="SVGID_6_">
				<use xlink:href="#SVGID_5_"  overflow="visible"/>
			</clipPath>
			<path clip-path="url(#SVGID_6_)" fill="#DA3AB3" d="M262.926,332.31h-18.79v-38.384c0-6.203-5.047-11.249-11.249-11.249
				c-6.204,0-11.25,5.046-11.25,11.249v38.384h-18.79v-38.384c0-16.563,13.477-30.039,30.04-30.039
				c16.562,0,30.038,13.476,30.039,30.039V332.31z"/>
		</g>
	</g>
</g>
<g>
	<g>
		<g>
			<defs>
				<rect id="SVGID_7_" x="541.511" y="229.389" width="27.09" height="105.921"/>
			</defs>
			<clipPath id="SVGID_8_">
				<use xlink:href="#SVGID_7_"  overflow="visible"/>
			</clipPath>
			<path clip-path="url(#SVGID_8_)" fill="#FFC843" d="M568.601,335.31h-9.16c-9.887,0-17.93-8.043-17.93-17.928V229.39h18.32v87.6
				h8.77V335.31z"/>
		</g>
	</g>
</g>
<g>
	<g>
		<g>
			<defs>
				<rect id="SVGID_9_" x="493.605" y="263.641" width="66.67" height="66.669"/>
			</defs>
			<clipPath id="SVGID_10_">
				<use xlink:href="#SVGID_9_"  overflow="visible"/>
			</clipPath>
			<path clip-path="url(#SVGID_10_)" fill="#FF6B00" d="M526.941,330.31c-18.383,0-33.336-14.953-33.336-33.334
				s14.953-33.335,33.336-33.335c18.381,0,33.334,14.954,33.334,33.335S545.322,330.31,526.941,330.31 M526.941,281.962
				c-8.279,0-15.016,6.734-15.016,15.014c0,8.279,6.734,15.016,15.016,15.016c8.277,0,15.014-6.736,15.014-15.016
				C541.955,288.696,535.218,281.962,526.941,281.962"/>
		</g>
	</g>
</g>
<g>
	<g>
		<g>
			<defs>
				<rect id="SVGID_11_" x="425.835" y="263.595" width="58.58" height="66.715"/>
			</defs>
			<clipPath id="SVGID_12_">
				<use xlink:href="#SVGID_11_"  overflow="visible"/>
			</clipPath>
			<path clip-path="url(#SVGID_12_)" fill="#FF4338" d="M484.416,330.31h-18.322v-37.426c0-6.048-4.92-10.969-10.967-10.969
				c-6.049,0-10.969,4.921-10.969,10.969v37.426h-18.322v-37.426c0-16.15,13.139-29.29,29.291-29.29
				c16.15,0,29.289,13.14,29.289,29.29V330.31z"/>
		</g>
	</g>
</g>
<g>
	<g>
		<g>
			<defs>
				<rect id="SVGID_13_" x="346.397" y="264.513" width="66.606" height="66.605"/>
			</defs>
			<clipPath id="SVGID_14_">
				<use xlink:href="#SVGID_13_"  overflow="visible"/>
			</clipPath>
			<g clip-path="url(#SVGID_14_)">
				<g>
					<defs>
						<rect id="SVGID_15_" x="346.397" y="264.513" width="66.606" height="66.605"/>
					</defs>
					<clipPath id="SVGID_16_">
						<use xlink:href="#SVGID_15_"  overflow="visible"/>
					</clipPath>
					<path clip-path="url(#SVGID_16_)" fill="#00B3E3" d="M379.7,331.119c-18.363,0-33.303-14.939-33.303-33.304
						c0-18.362,14.94-33.302,33.303-33.302s33.303,14.94,33.303,33.302C413.003,316.179,398.062,331.119,379.7,331.119
						 M379.7,282.816c-8.271,0-15,6.729-15,14.999c0,8.271,6.729,15.001,15,15.001s14.999-6.729,14.999-15.001
						C394.699,289.545,387.971,282.816,379.7,282.816"/>
				</g>
			</g>
		</g>
		<g>
			<g>
				<g>
					<defs>
						<rect id="SVGID_17_" x="575.226" y="264.641" width="67.646" height="66.669"/>
					</defs>
					<clipPath id="SVGID_18_">
						<use xlink:href="#SVGID_17_"  overflow="visible"/>
					</clipPath>
					<path clip-path="url(#SVGID_18_)" fill="#00B3E3" d="M624.396,301.136c0,0-2.26-10.782-7.348-15.106
						c-2.357-2.005-8.283-4.516-14.08-1.951c-5.074,2.244-7.926,6.882-8.482,11.62c-0.918,7.804,3.127,12.082,6.445,14.503
						c2.189,1.596,4.855,2.428,8.291,2.428c5.496,0,9.723-1.271,15.133-5.877l11.873,13.955
						c-8.734,7.434-16.703,10.604-26.645,10.604c-19.268,0-34.359-14.645-34.359-33.335c0-18.381,14.955-33.335,33.336-33.335
						c13.428,0,25.482,7.99,30.711,20.356l3.602,8.509L624.396,301.136z"/>
				</g>
			</g>
		</g>
		<g>
			<g>
				<g>
					<defs>
						<rect id="SVGID_19_" x="417.516" y="264.512" width="27.046" height="66.56"/>
					</defs>
					<clipPath id="SVGID_20_">
						<use xlink:href="#SVGID_19_"  overflow="visible"/>
					</clipPath>
					<g clip-path="url(#SVGID_20_)">
						<g>
							<defs>
								<rect id="SVGID_21_" x="417.516" y="264.513" width="27.042" height="66.559"/>
							</defs>
							<clipPath id="SVGID_22_">
								<use xlink:href="#SVGID_21_"  overflow="visible"/>
							</clipPath>
							<path clip-path="url(#SVGID_22_)" fill="#05CE7C" d="M444.562,331.072h-18.293v-48.269h-8.752v-18.291h9.147
								c9.869,0,17.898,8.031,17.898,17.901V331.072z"/>
						</g>
					</g>
				</g>
			</g>
		</g>
	</g>
</g>
</svg>
